<?xml version="1.0" encoding="utf-8"?>
<!-- Generator: Adobe Illustrator 26.5.0, SVG Export Plug-In . SVG Version: 6.00 Build 0)  -->
<svg version="1.1"
	 id="Layer_1" shape-rendering="geometricPrecision" text-rendering="geometricPrecision" image-rendering="optimizeQuality"
	 xmlns="http://www.w3.org/2000/svg" xmlns:xlink="http://www.w3.org/1999/xlink" x="0px" y="0px" viewBox="0 0 446 511.6"
	 style="enable-background:new 0 0 446 511.6;" xml:space="preserve">
<style type="text/css">
	.st0{fill:#344236;}
	.st1{fill-rule:evenodd;clip-rule:evenodd;fill:#A3B5A8;}
	.st2{fill-rule:evenodd;clip-rule:evenodd;fill:#70B1E1;}
	.st3{fill-rule:evenodd;clip-rule:evenodd;fill:#5F7063;}
	.st4{fill-rule:evenodd;clip-rule:evenodd;fill:#656D7A;}
	.st5{fill-rule:evenodd;clip-rule:evenodd;fill:#FDFEFF;}
	.st6{font-family:'Roboto-Black';}
	.st7{font-size:36px;}
</style>
<path class="st0" d="M421.3,511.4H81.8l0,0c-70.2,2.1-80.1-9.6-81.6-56.7C0,448.9,0,442.3,0.1,434.8v-5.2H0V51.8
	c0-24,6.3-37.3,22.3-45.2C34.8,0.4,52-0.3,77.3,0h1.1h327.9c8.5,0,16.2,3.5,21.8,9c5.6,5.6,9,13.3,9,21.8
	c0,57.6-0.2,145.1-0.4,232.7c-0.2,63.6-0.3,127.2-0.3,232.7C436.4,504.6,429.6,511.4,421.3,511.4z"/>
<path class="st1" d="M81.8,496.2h339.5c0-163.2,0.8-302.2,0.8-465.4c0-8.7-7.1-15.7-15.7-15.7h-328C30.9,14.5,15.1,17,15.1,51.8
	v377.8C15.1,485.4,12.8,498.4,81.8,496.2z"/>
<path class="st2" d="M0,0"/>
<path class="st3" d="M95,16.3v478.8c-41.5,9.4-57.9,3.5-65-4.1c-3-3.2-15-18-15-18l0,0c0-140.1,0.1-280.1,0.1-420.2
	C14,41.7,16.8,34.8,19,31C29.6,12.7,60.5,5.4,95,16.3z"/>
<path class="st4" d="M0,0"/>
<path class="st5" d="M0,0"/>
<text transform="matrix(1 0 0 1 131.7128 99)" class="st0 st6 st7">Kerolos Magdy</text>
<path class="st3" d="M-96,304"/>
<path class="st3" d="M-275,494"/>
<rect x="112" y="105.5" class="st3" width="282" height="2.5"/>
<rect x="112" y="129" class="st3" width="282" height="2.5"/>
<rect x="112" y="199.5" class="st3" width="282" height="2.5"/>
<rect x="112" y="176" class="st3" width="282" height="2.5"/>
<rect x="112" y="152.5" class="st3" width="282" height="2.5"/>
<rect x="112" y="293.5" class="st3" width="282" height="2.5"/>
<rect x="112" y="270" class="st3" width="282" height="2.5"/>
<rect x="112" y="246.5" class="st3" width="282" height="2.5"/>
<rect x="112" y="223" class="st3" width="282" height="2.5"/>
<rect x="112" y="317" class="st3" width="282" height="2.5"/>
<rect x="112" y="340.5" class="st3" width="282" height="2.5"/>
<rect x="112" y="364" class="st3" width="282" height="2.5"/>
<rect x="112" y="387.5" class="st3" width="282" height="2.5"/>
<rect x="112" y="411" class="st3" width="282" height="2.5"/>
<rect x="112" y="434.5" class="st3" width="282" height="2.5"/>
</svg>
